<svg width="49" height="49" viewBox="0 0 49 49" fill="none" xmlns="http://www.w3.org/2000/svg">
<path d="M14.5 22.8889H18.5V26.8889H14.5V22.8889ZM14.5 30.8889H18.5V34.8889H14.5V30.8889ZM22.5 22.8889H26.5V26.8889H22.5V22.8889ZM22.5 30.8889H26.5V34.8889H22.5V30.8889ZM30.5 22.8889H34.5V26.8889H30.5V22.8889ZM30.5 30.8889H34.5V34.8889H30.5V30.8889Z" fill="white"/>
<path d="M10.5 44.8889H38.5C40.706 44.8889 42.5 43.0949 42.5 40.8889V12.8889C42.5 10.6829 40.706 8.88892 38.5 8.88892H34.5V4.88892H30.5V8.88892H18.5V4.88892H14.5V8.88892H10.5C8.294 8.88892 6.5 10.6829 6.5 12.8889V40.8889C6.5 43.0949 8.294 44.8889 10.5 44.8889ZM38.5 16.8889L38.502 40.8889H10.5V16.8889H38.5Z" fill="white"/>
</svg>
