<svg width="25" height="25" viewBox="0 0 25 25" fill="none" xmlns="http://www.w3.org/2000/svg">
<path fill-rule="evenodd" clip-rule="evenodd" d="M5 4.13135C4.17157 4.13135 3.5 4.80292 3.5 5.63135V20.6313C3.5 21.4597 4.17157 22.1313 5 22.1313H20C20.8284 22.1313 21.5 21.4597 21.5 20.6313V5.63135C21.5 4.80292 20.8284 4.13135 20 4.13135H5ZM9.02076 8.13407C9.02639 9.09032 8.31061 9.67954 7.46123 9.67532C6.66107 9.6711 5.96357 9.03407 5.96779 8.13548C5.97201 7.29032 6.63998 6.6111 7.50764 6.63079C8.38795 6.65048 9.02639 7.29595 9.02076 8.13407ZM12.7797 10.8931H10.2597H10.2583V19.4529H12.9217V19.2532C12.9217 18.8733 12.9214 18.4933 12.9211 18.1132C12.9203 17.0994 12.9194 16.0845 12.9246 15.071C12.926 14.8249 12.9372 14.569 13.0005 14.3341C13.2381 13.4566 14.0271 12.8899 14.9074 13.0292C15.4727 13.1177 15.8467 13.4454 16.0042 13.9784C16.1013 14.3116 16.1449 14.6702 16.1491 15.0176C16.1605 16.0652 16.1589 17.1128 16.1573 18.1605C16.1567 18.5303 16.1561 18.9003 16.1561 19.2701V19.4515H18.828V19.2462C18.828 18.7942 18.8278 18.3423 18.8275 17.8904C18.827 16.7609 18.8264 15.6314 18.8294 14.5015C18.8308 13.991 18.776 13.4876 18.6508 12.994C18.4638 12.2599 18.0771 11.6524 17.4485 11.2137C17.0027 10.9015 16.5133 10.7004 15.9663 10.6779C15.904 10.6754 15.8412 10.672 15.7781 10.6686C15.4984 10.6534 15.2141 10.6381 14.9467 10.692C14.1817 10.8453 13.5096 11.1954 13.0019 11.8127C12.9429 11.8835 12.8852 11.9554 12.7991 12.0627L12.7797 12.087V10.8931ZM6.18164 19.4557H8.83242V10.8987H6.18164V19.4557Z" fill="white"/>
</svg>
