<svg width="49" height="49" viewBox="0 0 49 49" fill="none" xmlns="http://www.w3.org/2000/svg">
<path d="M42.8333 10.8889C42.8333 8.68292 41.0393 6.88892 38.8333 6.88892H10.8333C8.62734 6.88892 6.83334 8.68292 6.83334 10.8889V38.8889C6.83334 41.0949 8.62734 42.8889 10.8333 42.8889H38.8333C41.0393 42.8889 42.8333 41.0949 42.8333 38.8889V10.8889ZM10.8333 38.8889V10.8889H38.8333L38.8373 38.8889H10.8333Z" fill="white"/>
<path d="M14.8333 14.8889H18.8293V18.8889H14.8333V14.8889ZM22.8333 14.8889H34.8333V18.8889H22.8333V14.8889ZM14.8333 22.8889H18.8293V26.8889H14.8333V22.8889ZM22.8333 22.8889H34.8333V26.8889H22.8333V22.8889ZM14.8333 30.8889H18.8293V34.8889H14.8333V30.8889ZM22.8333 30.8889H34.8333V34.8889H22.8333V30.8889Z" fill="white"/>
</svg>
