<svg width="49" height="49" viewBox="0 0 49 49" fill="none" xmlns="http://www.w3.org/2000/svg">
<path d="M10.1667 18.8869C10.1667 22.6909 11.6967 26.1409 14.1667 28.6669V42.8889C14.1654 43.2303 14.2517 43.5663 14.4173 43.8648C14.583 44.1633 14.8224 44.4143 15.1127 44.5939C15.403 44.7734 15.7346 44.8755 16.0756 44.8904C16.4167 44.9053 16.7558 44.8325 17.0607 44.6789L24.1667 41.1249L31.2727 44.6769C31.5768 44.8308 31.9155 44.9037 32.256 44.8886C32.5965 44.8736 32.9273 44.771 33.2167 44.5909C33.8067 44.2249 34.1667 43.5829 34.1667 42.8889V28.6689C36.7311 26.0589 38.1676 22.5459 38.1667 18.8869C38.1667 11.1689 31.8867 4.88892 24.1667 4.88892C16.4467 4.88892 10.1667 11.1689 10.1667 18.8869ZM25.0607 37.0989C24.7828 36.9599 24.4764 36.8875 24.1657 36.8875C23.855 36.8875 23.5485 36.9599 23.2707 37.0989L18.1667 39.6529V31.5189C19.9887 32.3869 22.0187 32.8889 24.1667 32.8889C26.3147 32.8889 28.3447 32.3889 30.1667 31.5189V39.6509L25.0607 37.0989ZM24.1667 8.88892C29.6787 8.88892 34.1667 13.3729 34.1667 18.8869C34.164 21.5385 33.1097 24.0807 31.235 25.9558C29.3602 27.8309 26.8182 28.8857 24.1667 28.8889C18.6527 28.8889 14.1667 24.4029 14.1667 18.8869C14.1699 16.2359 15.2245 13.6944 17.0992 11.8201C18.974 9.94571 21.5157 8.89156 24.1667 8.88892Z" fill="white"/>
</svg>
