<svg width="49" height="49" viewBox="0 0 49 49" fill="none" xmlns="http://www.w3.org/2000/svg">
<path d="M24.5 30.8889C20.82 30.8889 20.5 29.1689 20.5 28.8889H16.5C16.5 30.7289 17.82 33.9889 22.5 34.7289V36.8889H26.5V34.7289C30.5 34.0489 32.5 31.4689 32.5 28.8889C32.5 26.6489 31.46 22.8889 24.5 22.8889C20.5 22.8889 20.5 21.6289 20.5 20.8889C20.5 20.1489 21.9 18.8889 24.5 18.8889C27.1 18.8889 27.28 20.1689 27.3 20.8889H31.3C31.273 19.5264 30.7829 18.2137 29.9105 17.1668C29.0381 16.1199 27.8353 15.4012 26.5 15.1289V12.8889H22.5V15.0689C18.5 15.7289 16.5 18.3089 16.5 20.8889C16.5 23.1289 17.54 26.8889 24.5 26.8889C28.5 26.8889 28.5 28.2489 28.5 28.8889C28.5 29.5289 27.26 30.8889 24.5 30.8889Z" fill="white"/>
<path d="M4.5 4.88892V8.88892H8.5V42.8889C8.5 43.4193 8.71071 43.9281 9.08579 44.3031C9.46086 44.6782 9.96957 44.8889 10.5 44.8889H38.5C39.0304 44.8889 39.5391 44.6782 39.9142 44.3031C40.2893 43.9281 40.5 43.4193 40.5 42.8889V8.88892H44.5V4.88892H4.5ZM36.5 40.8889H12.5V8.88892H36.5V40.8889Z" fill="white"/>
</svg>
