<svg width="49" height="49" viewBox="0 0 49 49" fill="none" xmlns="http://www.w3.org/2000/svg">
<path d="M24.5 8.88892C14.742 8.88892 6.5 17.1309 6.5 26.8889C6.5 36.6469 14.742 44.8889 24.5 44.8889C34.258 44.8889 42.5 36.6469 42.5 26.8889C42.5 17.1309 34.258 8.88892 24.5 8.88892ZM24.5 40.8889C16.912 40.8889 10.5 34.4769 10.5 26.8889C10.5 19.3009 16.912 12.8889 24.5 12.8889C32.088 12.8889 38.5 19.3009 38.5 26.8889C38.5 34.4769 32.088 40.8889 24.5 40.8889Z" fill="white"/>
<path d="M26.5 24.8889V16.8889H22.5V28.8889H34.5V24.8889H26.5ZM35.068 8.30295L37.892 5.47095L43.912 11.4709L41.086 14.3049L35.068 8.30295ZM13.896 8.30295L7.91596 14.3009L5.07996 11.4769L11.06 5.47695L13.896 8.30295Z" fill="white"/>
</svg>
